# xmcd
#
# Track frame offsets: 
#        150
#        16595
#        32530
#        47595
#        62452
#        78402
#        93777
#        107095
#        121127
#        135730
#        155392
#        166625
#        180805
#        198922
#        215432
#        231237
#
# Disc length: 3309 seconds
#
# Revision: 2
# Processed by: cddbd v1.5.2PL0 Copyright (c) Steve Scherf et al.
# Submitted via: ExactAudioCopy v0.99pb4
#
DISCID=b20ceb10
DTITLE=Billie Holiday - Ultimate Billie Holiday
DYEAR=1997
DGENRE=Jazz
TTITLE0=Lover, Come Back to Me
TTITLE1=Good Morning, Heartache
TTITLE2=Body and Soul
TTITLE3=I Can't Face the Music
TTITLE4=Solitude
TTITLE5=I Cried for You
TTITLE6=My Man
TTITLE7=I Must Have That Man!
TTITLE8=He's Funny That Way
TTITLE9=Please Don't Talk About Me When I'm Gone
TTITLE10=Don't Explain
TTITLE11=Strange Fruit
TTITLE12=God Bless the Child
TTITLE13=Some Other Spring
TTITLE14=Fine and Mellow
TTITLE15=Lady Sings the Blues
EXTD=DISC: 1\nUPC: 731455759525\nLABEL: Verve\nENSORECORD: 172443\n
EXTT0=PERFORMER: Holiday, Billie\n
EXTT1=PERFORMER: Holiday, Billie\n
EXTT2=PERFORMER: Holiday, Billie\n
EXTT3=PERFORMER: Holiday, Billie\n
EXTT4=PERFORMER: Holiday, Billie\n
EXTT5=PERFORMER: Holiday, Billie\n
EXTT6=PERFORMER: Holiday, Billie\n
EXTT7=PERFORMER: Holiday, Billie\n
EXTT8=PERFORMER: Holiday, Billie\n
EXTT9=PERFORMER: Holiday, Billie\n
EXTT10=PERFORMER: Holiday, Billie\n
EXTT11=PERFORMER: Holiday, Billie\n
EXTT12=PERFORMER: Holiday, Billie\n
EXTT13=PERFORMER: Holiday, Billie\n
EXTT14=PERFORMER: Holiday, Billie\n
EXTT15=PERFORMER: Holiday, Billie\n
PLAYORDER=
